<?xml version="1.0" encoding="UTF-8" standalone="no"?>
<!-- Created with Inkscape (http://www.inkscape.org/) -->

<svg
   xmlns:dc="http://purl.org/dc/elements/1.1/"
   xmlns:cc="http://creativecommons.org/ns#"
   xmlns:rdf="http://www.w3.org/1999/02/22-rdf-syntax-ns#"
   xmlns:svg="http://www.w3.org/2000/svg"
   xmlns="http://www.w3.org/2000/svg"
   xmlns:sodipodi="http://sodipodi.sourceforge.net/DTD/sodipodi-0.dtd"
   xmlns:inkscape="http://www.inkscape.org/namespaces/inkscape"
   width="68.638695mm"
   height="68.771736mm"
   viewBox="0 0 243.20797 243.67938"
   id="svg2"
   version="1.1"
   inkscape:version="0.91 r13725"
   sodipodi:docname="logo.svg">
  <title
     id="title3928">LostTechInstitute</title>
  <defs
     id="defs4" />
  <sodipodi:namedview
     id="base"
     pagecolor="#ffffff"
     bordercolor="#666666"
     borderopacity="1.0"
     inkscape:pageopacity="0.0"
     inkscape:pageshadow="2"
     inkscape:zoom="1.979899"
     inkscape:cx="208.00703"
     inkscape:cy="127.74404"
     inkscape:document-units="px"
     inkscape:current-layer="layer1"
     showgrid="false"
     fit-margin-top="0"
     fit-margin-left="0"
     fit-margin-right="0"
     fit-margin-bottom="0"
     inkscape:window-width="1280"
     inkscape:window-height="697"
     inkscape:window-x="-8"
     inkscape:window-y="-8"
     inkscape:window-maximized="1" />
  <metadata
     id="metadata7">
    <rdf:RDF>
      <cc:Work
         rdf:about="">
        <dc:format>image/svg+xml</dc:format>
        <dc:type
           rdf:resource="http://purl.org/dc/dcmitype/StillImage" />
        <dc:title>LostTechInstitute</dc:title>
        <dc:creator>
          <cc:Agent>
            <dc:title>kuangdash</dc:title>
          </cc:Agent>
        </dc:creator>
        <dc:rights>
          <cc:Agent>
            <dc:title>all copyright belongs to kuangdash</dc:title>
          </cc:Agent>
        </dc:rights>
        <dc:description>logo</dc:description>
      </cc:Work>
    </rdf:RDF>
  </metadata>
  <g
     inkscape:label="Layer 1"
     inkscape:groupmode="layer"
     id="layer1"
     transform="translate(-190.29962,-432.61137)">
    <g
       id="g3919">
      <path
         style="fill:#f69fa1"
         d="m 315.25192,675.16263 c -8.66582,-2.51419 -14.94876,-13.67252 -11.57983,-20.56543 2.21253,-4.5269 12.87699,-11.83321 17.27203,-11.83321 10.05506,0 32.41465,-8.44749 42.28685,-15.97604 l 4.09838,-3.12542 -9.09838,-8.51506 c -9.1242,-8.53921 -12.22339,-10.25279 -12.22339,-6.75848 0,3.21166 -4.36835,2.06044 -8.30054,-2.1875 -2.0683,-2.23437 -9.25339,-9.11842 -15.96687,-15.2979 -6.71349,-6.17947 -17.47187,-16.58572 -23.90752,-23.125 -53.81938,-54.686 -58.23304,-58.93961 -59.80424,-57.63563 -2.96385,2.45978 -8.07345,13.1904 -10.56897,22.19581 -3.78452,13.6569 -4.39711,23.26712 -2.30518,36.1638 4.27917,26.38098 17.15621,45.76478 42.05925,63.31175 5.13201,3.61607 9.99974,7.98092 10.81718,9.69967 4.60669,9.68599 4.70109,10.0258 3.20163,11.52526 -0.81111,0.8111 -1.47474,2.43168 -1.47474,3.60126 0,1.16961 -2.10502,3.36853 -4.67782,4.88652 -12.1391,7.16225 -32.56191,-2.37409 -53.5743,-25.01629 -10.87912,-11.72296 -22.1394,-32.0695 -26.86,-48.53419 -9.21311,-32.13381 -3.36713,-69.53718 15.09587,-96.58548 2.75894,-4.04184 5.01625,-7.64462 5.01625,-8.00617 0,-0.36155 -4.78125,-5.76811 -10.625,-12.01458 -10.40556,-11.12267 -12.0576,-14.17373 -9.21415,-17.01718 1.0478,-1.0478 0.72614,-2.28132 -1.25,-4.79357 -1.8677,-2.3744 -2.66085,-5.15562 -2.66085,-9.33042 0,-6.83234 1.68243,-8.17862 6.86236,-5.49125 4.33971,2.25147 4.82841,2.2277 3.90076,-0.18972 -1.57742,-4.1107 3.53025,-1.08263 5.96155,3.53429 1.35593,2.57484 3.26173,4.68152 4.23513,4.68152 2.36579,0 7.8199,4.12525 16.84008,12.7371 l 7.44932,7.1121 7.0629,-4.78217 c 10.46516,-7.08579 20.57495,-11.82378 35.22026,-16.50611 12.68726,-4.05631 13.71189,-4.18279 33.09264,-4.08469 23.49404,0.11892 32.99501,2.16601 51.59275,11.11624 14.36576,6.91357 20.68872,11.22681 31.73829,21.6504 14.69431,13.86188 29.41377,39.24471 33.49326,57.75713 2.35819,10.70126 3.12734,37.11723 1.36912,47.02137 -3.39573,19.12851 -13.93042,44.39154 -23.07596,55.33803 -4.61199,5.52019 -5.49106,7.6406 -3.16763,7.6406 1.8833,0 14.7108,12.35535 15.54002,14.96804 0.38012,1.19764 3.00787,3.22222 5.83946,4.4991 5.4098,2.43947 8.54569,7.44835 8.54569,13.64981 0,3.09708 -0.10775,3.14006 -3.4375,1.37193 -1.89063,-1.00393 -7.621,-6.36213 -12.73418,-11.9071 -5.11317,-5.54498 -9.86765,-10.08178 -10.56549,-10.08178 -0.69784,0 -3.09562,-1.7706 -5.32837,-3.93468 -4.68173,-4.53772 -3.62189,-4.95375 -17.93446,7.03994 -18.7404,15.70413 -52.30519,26.42105 -68.25566,21.79338 z m 71.07103,-75.83614 c 8.66814,-16.71692 10.31899,-23.82799 10.22922,-44.0625 -0.0721,-16.25639 -0.41742,-19.07025 -3.34925,-27.29365 -4.62411,-12.96996 -10.23865,-21.84765 -20.32034,-32.13047 -10.15376,-10.35633 -22.12656,-17.79901 -36.25,-22.53415 -16.92663,-5.67496 -37.07185,-4.12582 -59.34126,4.56328 -5.17481,2.01911 -10.75375,4.71191 -12.39764,5.98399 l -2.98891,2.31288 25.36329,24.86156 c 35.15194,34.45658 36.23132,35.61989 40.11715,43.23673 1.3093,2.56643 3.45318,5.24031 4.76421,5.94194 3.68141,1.97023 10.20138,8.89033 11.43612,12.13794 0.73919,1.94424 2.11603,2.91995 4.12032,2.91995 1.95888,0 3.23846,0.87309 3.66391,2.5 0.39115,1.49575 1.70501,2.5 3.27078,2.5 2.00349,0 2.63455,0.80589 2.69177,3.4375 0.0566,2.60662 1.7355,4.7971 6.94572,9.0625 3.77905,3.09375 8.25248,7.73438 9.94095,10.3125 4.53646,6.92672 6.95661,6.17693 12.10396,-3.75 z"
         id="path3656"
         inkscape:connector-curvature="0" />
      <path
         style="fill:#a2a1a1"
         d="m 316.21923,675.27329 c -8.13724,-1.92479 -15.03923,-12.15565 -13.18487,-19.54401 0.79704,-3.17564 10.9006,-11.55212 14.79326,-12.26453 22.36765,-4.09353 37.63186,-9.89956 46.66891,-17.75137 l 4.11395,-3.57439 -11.56179,-10.3125 c -10.71372,-9.55608 -14.79111,-12.07463 -14.79111,-9.13627 0,0.64692 0.5625,1.52387 1.25,1.94877 1.88669,1.16604 1.49879,3.36536 -0.51221,2.90415 -2.00975,-0.46092 -25.0176,-21.71739 -44.11844,-40.76007 -10.86641,-10.83334 -12.77889,-13.31929 -12.15598,-15.80114 0.81253,-3.2374 -0.50551,-4.52805 -5.14416,-5.03724 -4.08776,-0.44873 -16.44378,-12.08758 -34.8935,-32.8682 -2.59414,-2.92187 -5.46738,-5.3125 -6.38499,-5.3125 -2.52048,0 -10.05521,14.44718 -12.88695,24.7096 -3.79227,13.74342 -4.42482,24.25054 -2.21521,36.79636 4.59577,26.09405 17.3008,45.07074 41.89054,62.56924 5.06225,3.60239 9.91814,7.95605 10.79085,9.6748 4.75805,9.37062 4.8771,9.87517 2.87288,12.17535 -1.05413,1.20981 -1.68507,2.83324 -1.40207,3.60761 0.283,0.77438 -1.61417,2.66394 -4.21593,4.19901 -3.96203,2.33767 -5.84884,2.66438 -11.61515,2.01128 -11.26029,-1.27536 -21.21035,-7.05705 -35.11829,-20.40623 -12.89339,-12.37538 -17.57165,-18.95562 -26.63824,-37.46822 -17.65606,-36.05096 -14.7347,-79.95267 7.53422,-113.22272 l 6.75421,-10.09088 -3.45829,-3.83479 c -1.90206,-2.10914 -6.69267,-7.30412 -10.64579,-11.54441 -7.89116,-8.46439 -8.99174,-11.14985 -4.0625,-9.91269 4.22914,1.06144 4.04729,-1.2919 -0.46973,-6.0788 -6.7007,-7.10107 -5.68268,-19.94298 1.09473,-13.80951 1.32379,1.19801 3.21402,1.86848 4.20052,1.48992 1.02971,-0.39514 3.18316,0.87124 5.05619,2.9734 1.79442,2.01392 4.10199,3.66168 5.12793,3.66168 1.02595,0 1.86536,0.49426 1.86536,1.09835 0,0.60409 1.73619,1.8175 3.85821,2.69647 2.12201,0.87897 6.71946,4.56234 10.21656,8.18527 l 6.35835,6.58716 7.59594,-5.38625 c 10.559,-7.48732 20.47423,-12.23513 35.7533,-17.12008 12.68726,-4.05631 13.71189,-4.18279 33.09264,-4.08469 23.55456,0.11923 32.98851,2.1626 51.81246,11.22247 48.97826,23.57297 75.37605,75.227 65.76003,128.6763 -3.47513,19.31601 -14.06793,43.62455 -23.48325,53.88979 -5.27051,5.74627 -5.78295,7.64891 -2.41404,8.96299 3.65135,1.42426 13.50513,10.64257 14.40197,13.47321 0.44889,1.41679 3.06464,3.56801 5.81278,4.78049 2.74814,1.21247 5.64073,3.42827 6.42796,4.92401 0.78724,1.49574 1.95885,3.06437 2.60359,3.48587 0.64473,0.4215 0.96567,2.109 0.71321,3.75 -0.41227,2.6799 -1.68911,1.74293 -12.54227,-9.20386 -6.6458,-6.70313 -12.57073,-12.1875 -13.16649,-12.1875 -0.59577,0 -2.69995,-1.6875 -4.67595,-3.75 -1.976,-2.0625 -4.226,-3.75 -5,-3.75 -0.774,0 -3.05939,1.74623 -5.07864,3.8805 -11.75923,12.42911 -30.95026,23.15074 -50.16107,28.02396 -12.42881,3.15284 -18.98931,3.61335 -26.42364,1.85484 z m 72.47132,-80.6343 c 6.77585,-14.04412 8.94304,-25.39187 8.23599,-43.125 -0.94308,-23.65314 -7.8454,-39.36237 -24.701,-56.21797 -11.06242,-11.06243 -19.64691,-16.419 -34.64145,-21.61567 -14.59965,-5.05982 -30.28048,-5.15066 -47.20496,-0.27348 -10.78987,3.10936 -29.37517,11.30052 -29.36821,12.94356 0.002,0.43371 11.34205,12.03856 25.20047,25.78856 35.4385,35.16124 37.22293,37.04764 39.05181,41.28337 0.89845,2.08086 5.23037,7.48738 9.62647,12.01451 4.3961,4.52711 8.55541,8.85565 9.24291,9.61897 0.6875,0.76333 3.5,3.56832 6.25,6.23334 2.75,2.665 5.61815,5.63395 6.37366,6.59763 0.7555,0.96371 4.87486,5.12718 9.15411,9.25218 4.27927,4.125 8.99614,8.80474 10.48197,10.39941 l 2.70148,2.89941 2.38603,-2.89941 c 1.31232,-1.59467 4.55715,-7.39941 7.21072,-12.89941 z m -165.18297,-131.875 c 0,-0.6875 -0.5957,-1.25 -1.32377,-1.25 -0.72808,0 -0.97613,0.5625 -0.55123,1.25 0.4249,0.6875 1.02059,1.25 1.32377,1.25 0.30318,0 0.55123,-0.5625 0.55123,-1.25 z"
         id="path3654"
         inkscape:connector-curvature="0" />
      <path
         style="fill:#f15c61"
         d="m 321.63258,674.40118 c -9.7412,-1.26826 -16.875,-7.91363 -16.875,-15.71958 0,-3.4164 0.91871,-4.97732 4.6875,-7.96426 5.59947,-4.43785 9.59044,-6.01394 20.0485,-7.91744 14.62651,-2.66221 39.70926,-15.29626 38.76201,-19.52423 -0.50999,-2.27627 -22.32392,-21.76168 -24.36221,-21.76168 -1.92821,0 -2.17733,2.01777 -0.3858,3.125 1.88669,1.16604 1.49879,3.36536 -0.51221,2.90415 -2.00975,-0.46092 -25.0176,-21.71739 -44.11844,-40.76007 -10.86641,-10.83334 -12.77889,-13.31929 -12.15598,-15.80114 0.81253,-3.2374 -0.50551,-4.52805 -5.14416,-5.03724 -3.36925,-0.36985 -10.2656,-6.36083 -22.84238,-19.84357 -18.32849,-19.64879 -18.78839,-20.04963 -20.94759,-18.25765 -2.8288,2.34769 -8.56451,14.15883 -11.50504,23.69149 -6.96259,22.57147 -3.73186,48.02478 8.79157,69.26458 5.86892,9.95371 17.04795,21.80553 27.43932,29.09066 5.29655,3.71329 11.01452,8.39674 12.7066,10.40768 3.5503,4.21929 5.60141,11.48675 3.44481,12.20561 -0.77358,0.25786 -1.4065,1.74278 -1.4065,3.29983 0,2.09232 -1.30079,3.41756 -4.98534,5.07906 -4.71851,2.12775 -5.43773,2.13722 -13.4375,0.17685 -10.72434,-2.62804 -22.48186,-10.48915 -33.6552,-22.50199 -9.89022,-10.6333 -15.00205,-18.33446 -22.37227,-33.70465 -9.8734,-20.59045 -13.3476,-42.6634 -10.08906,-64.09984 2.88833,-19.00102 10.02211,-37.54894 19.44472,-50.55648 2.11456,-2.91906 3.84465,-5.92658 3.84465,-6.68339 0,-0.75681 -4.78125,-6.58818 -10.625,-12.95859 -5.84375,-6.37042 -10.625,-12.19655 -10.625,-12.94695 0,-0.83115 1.22131,-1.05784 3.125,-0.58004 4.22914,1.06144 4.04729,-1.2919 -0.46973,-6.0788 -6.7007,-7.10107 -5.68268,-19.94298 1.09473,-13.80951 1.32379,1.19801 3.21402,1.86848 4.20052,1.48992 1.02971,-0.39514 3.18316,0.87124 5.05619,2.9734 1.79442,2.01392 4.10199,3.66168 5.12793,3.66168 1.02595,0 1.86536,0.49426 1.86536,1.09835 0,0.60409 1.73619,1.8175 3.85821,2.69647 2.12201,0.87897 6.75916,4.60346 10.30476,8.27665 3.54561,3.67319 6.93159,6.67853 7.52441,6.67853 0.59283,0 3.1733,-1.65962 5.73439,-3.68804 8.22753,-6.51632 22.83733,-13.51004 36.95323,-17.68952 43.81234,-12.97209 94.26736,2.04315 123.05401,36.62045 8.55494,10.27584 21.306,34.631 24.41409,46.63211 3.16346,12.21497 3.85407,37.97485 1.36971,51.0905 -3.66334,19.33981 -12.74244,40.424 -22.76636,52.86987 -4.72176,5.86262 -5.27549,8.82429 -1.89625,10.14241 3.65135,1.42426 13.50512,10.64257 14.40197,13.47321 0.44889,1.41679 3.06464,3.56801 5.81278,4.78049 2.74814,1.21247 5.64073,3.42827 6.42796,4.92401 0.78724,1.49574 1.95885,3.06437 2.60359,3.48587 0.64473,0.4215 0.96567,2.109 0.71321,3.75 -0.41227,2.6799 -1.68911,1.74293 -12.54227,-9.20386 -6.6458,-6.70313 -12.57073,-12.1875 -13.16649,-12.1875 -0.59577,0 -2.69995,-1.6875 -4.67595,-3.75 -1.976,-2.0625 -4.38921,-3.75 -5.3627,-3.75 -0.97349,0 -4.5245,2.47656 -7.89115,5.50346 -13.41597,12.06212 -28.4713,19.9953 -47.7466,25.15938 -11.32382,3.03377 -12.79299,3.19516 -20.24955,2.22435 z m 60.9082,-66.32469 c 2.83738,-3.23157 9.26026,-16.11765 12.30514,-24.6875 3.83187,-10.78486 4.75355,-34.34517 1.85351,-47.38026 -3.61286,-16.23912 -10.56755,-28.39292 -23.68835,-41.39706 -12.0453,-11.93818 -21.47813,-17.84399 -37.0035,-23.16755 -10.7536,-3.68735 -28.86687,-3.69192 -43.87973,-0.0111 -11.42525,2.80124 -31.12229,11.79238 -31.11693,14.20401 0.002,0.82607 11.34205,12.75195 25.20047,26.50195 35.4385,35.16124 37.22293,37.04764 39.05181,41.28337 0.89845,2.08086 5.23037,7.48738 9.62647,12.01451 4.3961,4.52711 8.55541,8.85565 9.24291,9.61897 0.6875,0.76333 3.5,3.56832 6.25,6.23334 2.75,2.665 5.61815,5.63395 6.37366,6.59763 0.7555,0.96371 4.87486,5.12718 9.15411,9.25218 4.27927,4.125 8.95335,8.76562 10.38687,10.3125 3.13748,3.38561 3.76457,3.44839 6.24356,0.625 z m -159.0332,-145.3125 c 0,-0.6875 -0.5957,-1.25 -1.32377,-1.25 -0.72808,0 -0.97613,0.5625 -0.55123,1.25 0.4249,0.6875 1.02059,1.25 1.32377,1.25 0.30318,0 0.55123,-0.5625 0.55123,-1.25 z"
         id="path3652"
         inkscape:connector-curvature="0" />
      <path
         style="fill:#5e5d5d"
         d="m 321.63258,674.40118 c -9.7412,-1.26826 -16.875,-7.91363 -16.875,-15.71958 0,-3.4164 0.91871,-4.97732 4.6875,-7.96426 5.59947,-4.43785 9.59044,-6.01394 20.0485,-7.91744 16.65516,-3.03145 37.62485,-14.25253 40.14506,-21.48203 1.61009,-4.61872 0.76154,-6.4263 -2.5268,-5.38262 -1.80956,0.57433 -4.38744,-1.03434 -10.03209,-6.2603 -10.87526,-10.06856 -13.24813,-11.46469 -16.27392,-9.57506 -2.81694,1.75921 -3.09238,1.55124 -24.46698,-18.47452 -9.30629,-8.71902 -12.6062,-12.58053 -12.10576,-14.16602 0.48548,-1.5381 0.15682,-1.97581 -1.11666,-1.48713 -1.08155,0.41503 -4.34798,-1.74605 -8.15229,-5.39358 -5.02021,-4.81334 -6.19415,-6.6731 -5.61361,-8.8931 1.02465,-3.91826 -14.80993,-19.41789 -18.60648,-18.21291 -2.00061,0.63497 -5.28507,-2.13458 -16.62801,-14.02119 -16.0606,-16.83039 -14.62326,-16.63623 -21.74653,-2.93745 -13.7785,26.49748 -12.76638,58.048 2.70384,84.28555 5.86892,9.95371 17.04795,21.80553 27.43932,29.09066 5.29655,3.71329 11.01452,8.39674 12.7066,10.40768 3.5503,4.21929 5.60141,11.48675 3.44481,12.20561 -0.77358,0.25786 -1.4065,1.74278 -1.4065,3.29983 0,2.09232 -1.30079,3.41756 -4.98534,5.07906 -4.71851,2.12775 -5.43773,2.13722 -13.4375,0.17685 -10.72434,-2.62804 -22.48186,-10.48915 -33.6552,-22.50199 -9.89022,-10.6333 -15.00205,-18.33446 -22.37227,-33.70465 -6.52582,-13.60925 -8.72813,-21.65079 -10.6091,-38.73833 -2.8127,-25.55163 5.1652,-55.33255 20.56512,-76.76812 2.47186,-3.44065 4.49429,-6.71066 4.49429,-7.26669 0,-0.55602 -4.21875,-5.34612 -9.375,-10.64466 -9.29671,-9.55326 -11.04524,-12.4208 -7.57377,-12.4208 2.95842,0 3.54507,-2.4103 1.38795,-5.70248 -1.80652,-2.7571 -1.81821,-3.1724 -0.10775,-3.82877 2.47157,-0.94843 2.43368,-2.8277 -0.11377,-5.6426 -1.54579,-1.70809 -2.59316,-1.94556 -4.37499,-0.99195 -2.05379,1.09916 -2.34267,0.78049 -2.34267,-2.5842 0,-3.41397 0.26849,-3.69427 2.43038,-2.53726 1.33671,0.71539 2.76098,1.83561 3.16503,2.48939 0.40406,0.65378 1.44823,0.91486 2.32037,0.58019 0.87215,-0.33468 4.04148,1.65864 7.04296,4.42959 3.00148,2.77095 6.54342,5.03809 7.87099,5.03809 1.32756,0 5.63521,3.375 9.57254,7.5 3.93734,4.125 7.58477,7.5 8.10539,7.5 0.52063,0 3.29126,-1.91841 6.15697,-4.26313 15.28708,-12.50792 42.52861,-22.0943 65.25241,-22.96254 36.50016,-1.39462 73.23245,14.45735 95.51197,41.21856 8.55494,10.27584 21.306,34.631 24.41409,46.63211 3.16346,12.21497 3.85407,37.97485 1.36971,51.0905 -3.77296,19.91854 -12.92764,40.87423 -23.37576,53.50876 -2.66038,3.21709 -4.83705,6.73272 -4.83705,7.8125 0,1.07978 -0.62426,1.96324 -1.38724,1.96324 -0.76299,0 -4.3662,2.7226 -8.00716,6.05024 -13.72573,12.54453 -28.81428,20.59364 -48.48105,25.8626 -11.32383,3.03377 -12.79299,3.19516 -20.24955,2.22435 z m 61.37659,-66.95823 c 10.73346,-16.56638 14.38705,-27.80339 15.18421,-46.70062 1.20365,-28.53353 -5.79698,-46.9177 -25.1823,-66.13066 -12.0453,-11.93818 -21.47813,-17.84399 -37.0035,-23.16755 -10.7536,-3.68735 -28.86687,-3.69192 -43.87973,-0.0111 -11.46266,2.81041 -30.85262,11.67901 -31.98472,14.62922 -0.47676,1.24239 9.63134,12.1504 30.75189,33.18546 17.30414,17.23411 32.20057,33.09121 33.10317,35.23801 0.90262,2.14679 12.42678,14.87202 25.60927,28.27827 13.18248,13.40625 24.89502,25.35937 26.02785,26.5625 2.92366,3.10509 4.38326,2.73225 7.37386,-1.88354 z M 274.32399,509.41123 c -1.9008,-3.64771 -8.63455,-8.41243 -9.98308,-7.06391 -1.29532,1.29533 2.88259,7.17502 7.0731,9.95417 4.58257,3.03916 5.51644,2.11161 2.90998,-2.89026 z m -14.59421,-11.95974 c -0.0535,-3.00913 -4.57692,-7.60665 -6.68725,-6.79685 -3.11217,1.19426 -2.42635,4.26677 1.40255,6.28354 4.43203,2.33446 5.31863,2.42057 5.28471,0.51331 z m -49.9722,-34.0625 c 0,-1.03125 -0.84375,-1.875 -1.875,-1.875 -1.03125,0 -1.875,0.84375 -1.875,1.875 0,1.03125 0.84375,1.875 1.875,1.875 1.03125,0 1.875,-0.84375 1.875,-1.875 z m 16.25,-0.54077 c 0,-2.79296 -4.60614,-4.72809 -6.57285,-2.76138 -0.92826,0.92826 -0.84532,1.89459 0.27888,3.24917 2.30253,2.77438 6.29397,2.46504 6.29397,-0.48779 z m 206.34869,206.89493 c -0.0543,-1.3177 0.24115,-2.05599 0.65652,-1.64062 0.41536,0.41536 0.45976,1.49349 0.0986,2.39584 -0.39903,0.99716 -0.69523,0.70097 -0.7552,-0.75522 z m -5.64793,-3.66476 c -3.33565,-3.33565 -4.28071,-6.38271 -1.71432,-5.52725 2.1062,0.70206 6.62745,7.01562 5.69311,7.94997 -0.42793,0.42792 -2.21838,-0.66231 -3.97879,-2.42272 z m -23.19597,-22.05546 c -1.24067,-2.3182 -1.1136,-2.39102 1.83101,-1.04935 3.47585,1.5837 4.21266,3.54041 1.33317,3.54041 -1.00706,0 -2.43095,-1.12097 -3.16418,-2.49106 z"
         id="path3650"
         inkscape:connector-curvature="0" />
      <path
         style="fill:#ea0b12"
         d="m 322.02127,673.10795 c -3.93021,-0.41404 -4.66873,-0.98305 -5,-3.85237 -0.32072,-2.77779 -1.14069,-3.4759 -4.68839,-3.99159 -3.65724,-0.53161 -4.46646,-1.27094 -5.41573,-4.94795 -1.02625,-3.97519 -0.78091,-4.60605 3.0497,-7.84218 5.19098,-4.38536 10.33113,-6.68121 17.41804,-7.77976 8.14092,-1.26194 16.98731,-4.26972 26.12269,-8.88175 11.37341,-5.74189 16.0523,-10.14912 16.50676,-15.54836 0.3317,-3.94093 0.0758,-4.34308 -2.57969,-4.05324 -2.09808,0.229 -5.11062,-1.68051 -10.44978,-6.62364 -10.77658,-9.9772 -13.1582,-11.37376 -16.17904,-9.48722 -2.81694,1.75921 -3.09238,1.55124 -24.46698,-18.47452 -9.30629,-8.71902 -12.6062,-12.58053 -12.10576,-14.16602 0.48548,-1.5381 0.15682,-1.97581 -1.11666,-1.48714 -1.08155,0.41504 -4.34798,-1.74605 -8.15229,-5.39357 -5.02021,-4.81334 -6.19415,-6.6731 -5.61361,-8.8931 1.03604,-3.96181 -14.65858,-19.2531 -18.74827,-18.26647 -2.21148,0.53352 -5.24758,-2.03572 -16.24792,-13.74948 -7.44053,-7.92308 -14.28291,-14.4056 -15.20528,-14.4056 -1.93812,0 -7.7023,9.05785 -11.53429,18.125 -3.29654,7.80019 -6.60774,23.59544 -6.60548,31.5098 0.002,8.60739 3.08736,24.86684 6.23552,32.8652 6.78123,17.22873 20.52131,33.94312 37.11411,45.1482 9.6622,6.52486 10.3738,7.27724 12.27366,12.9768 2.7655,8.2965 -6.46332,16.72119 -15.74331,14.37155 -8.95997,-2.26861 -10.71695,-3.04106 -17.83898,-7.84283 -14.51806,-9.78826 -28.58073,-26.55362 -38.01404,-45.31992 -9.25523,-18.41203 -13.88918,-42.96887 -11.62396,-61.59914 2.46581,-20.28004 8.80949,-38.29691 18.43399,-52.35493 2.97621,-4.34721 5.4113,-8.84254 5.4113,-9.98962 0,-1.14709 -4.21875,-6.42077 -9.375,-11.71931 -9.29671,-9.55326 -11.04524,-12.4208 -7.57377,-12.4208 2.95842,0 3.54507,-2.4103 1.38795,-5.70248 -1.80652,-2.7571 -1.81821,-3.1724 -0.10775,-3.82877 2.47157,-0.94843 2.43368,-2.8277 -0.11377,-5.6426 -1.54579,-1.70809 -2.59316,-1.94556 -4.37499,-0.99195 -2.05379,1.09916 -2.34267,0.78049 -2.34267,-2.5842 0,-3.41397 0.26849,-3.69427 2.43038,-2.53726 1.33671,0.71539 2.76098,1.83561 3.16503,2.48939 0.40406,0.65378 1.44823,0.91486 2.32037,0.58019 0.87215,-0.33468 4.04148,1.65864 7.04296,4.42959 3.00148,2.77095 6.54342,5.03809 7.87099,5.03809 1.32756,0 5.63521,3.375 9.57254,7.5 3.93734,4.125 8.16768,7.5 9.40075,7.5 1.23307,0 4.11188,-1.64182 6.39735,-3.6485 6.92351,-6.07891 19.1538,-12.13731 34.29963,-16.99064 74.79982,-23.96887 151.26239,32.48368 151.24829,111.66709 -0.004,24.41714 -11.444,58.10054 -24.96062,73.49513 -2.08322,2.37265 -3.78767,5.70058 -3.78767,7.39542 0,2.39201 -0.65046,3.0815 -2.90711,3.0815 -1.5989,0 -4.27078,1.46875 -5.9375,3.2639 -5.66089,6.09709 -17.55702,14.50762 -27.453,19.40921 -8.6802,4.2994 -32.0468,11.44225 -35.54873,10.86677 -0.70326,-0.11563 -3.35375,-0.42874 -5.88997,-0.69592 z m 65.66882,-70.93633 c 9.93776,-17.62473 13.77415,-35.55348 11.93874,-55.79374 -3.24196,-35.75106 -29.00992,-65.96007 -65.5709,-76.8719 -9.31659,-2.78059 -29.44421,-2.71995 -40.73811,0.12272 -16.86229,4.24425 -33.56224,12.46037 -33.56224,16.51213 0,1.15251 14.08489,16.12336 31.29976,33.26855 17.21486,17.14519 32.03825,32.92954 32.94085,35.07634 0.90262,2.1468 12.42678,14.87202 25.60926,28.27827 13.18249,13.40625 24.9193,25.38242 26.08179,26.61371 3.70988,3.92941 6.75206,2.10269 12.00085,-7.20608 z m 15.81749,-87.53263 c -0.85586,-1.03125 -1.75084,-1.875 -1.98883,-1.875 -0.23798,0 -0.109,0.84375 0.28679,1.875 0.39574,1.03125 1.2907,1.875 1.98883,1.875 0.73163,0 0.61015,-0.79426 -0.28679,-1.875 z m -129.18359,-5.22776 c -1.9008,-3.64771 -8.63455,-8.41243 -9.98308,-7.06391 -1.29532,1.29533 2.88259,7.17502 7.0731,9.95417 4.58257,3.03916 5.51644,2.11161 2.90998,-2.89026 z m -14.59421,-11.95974 c -0.0535,-3.00913 -4.57692,-7.60665 -6.68725,-6.79685 -3.11217,1.19426 -2.42635,4.26677 1.40255,6.28354 4.43203,2.33446 5.31863,2.42057 5.28471,0.51331 z m -49.9722,-34.0625 c 0,-1.03125 -0.84375,-1.875 -1.875,-1.875 -1.03125,0 -1.875,0.84375 -1.875,1.875 0,1.03125 0.84375,1.875 1.875,1.875 1.03125,0 1.875,-0.84375 1.875,-1.875 z m 16.25,-0.54077 c 0,-2.79296 -4.60614,-4.72809 -6.57285,-2.76138 -0.92826,0.92826 -0.84532,1.89459 0.27888,3.24917 2.30253,2.77438 6.29397,2.46504 6.29397,-0.48779 z m 206.34869,206.89493 c -0.0543,-1.3177 0.24115,-2.05599 0.65652,-1.64062 0.41536,0.41536 0.45976,1.49349 0.0986,2.39584 -0.39903,0.99716 -0.69523,0.70097 -0.7552,-0.75522 z m -5.64793,-3.66476 c -3.33565,-3.33565 -4.28071,-6.38271 -1.71432,-5.52725 2.1062,0.70206 6.62745,7.01562 5.69311,7.94997 -0.42793,0.42792 -2.21838,-0.66231 -3.97879,-2.42272 z m -23.19597,-22.05546 c -1.24067,-2.3182 -1.1136,-2.39102 1.83101,-1.04935 3.47585,1.5837 4.21266,3.54041 1.33317,3.54041 -1.00706,0 -2.43095,-1.12097 -3.16418,-2.49106 z"
         id="path3648"
         inkscape:connector-curvature="0" />
      <path
         style="fill:#a30308"
         d="m 322.02127,673.10795 c -3.93021,-0.41404 -4.66873,-0.98305 -5,-3.85237 -0.32072,-2.77779 -1.14069,-3.4759 -4.68839,-3.99159 -3.65724,-0.53161 -4.46646,-1.27094 -5.41573,-4.94795 -1.02625,-3.97519 -0.78091,-4.60605 3.0497,-7.84218 5.19098,-4.38536 10.33113,-6.68121 17.41804,-7.77976 14.50305,-2.24815 32.48988,-10.63241 40.50744,-18.88189 2.96574,-3.05152 6.14556,-5.53869 7.06625,-5.52705 1.48542,0.0188 10.73481,8.25692 14.24445,12.68706 0.72625,0.91672 2.65136,2.55016 4.27804,3.62986 l 2.95758,1.96307 -5.89312,5.43209 c -15.16263,13.97643 -29.92038,22.04255 -49.34354,26.96964 -6.60665,1.67591 -12.58747,2.95255 -13.29075,2.83699 -0.70326,-0.11563 -3.35375,-0.42874 -5.88997,-0.69592 z m -59.13869,-12.16589 c -0.6875,-0.20601 -3.78125,-1.11508 -6.875,-2.02017 -16.78768,-4.91126 -38.47201,-26.95839 -50.97133,-51.8241 -9.25523,-18.41203 -13.88918,-42.96887 -11.62396,-61.59914 2.46581,-20.28004 8.80949,-38.29691 18.43399,-52.35493 2.97621,-4.34721 5.4113,-8.46105 5.4113,-9.14187 0,-3.12609 4.14882,0.12652 14.70271,11.52671 l 7.76677,8.38956 -2.8781,3.10552 c -4.01953,4.33714 -10.28476,17.60641 -12.68304,26.8617 -5.83682,22.52502 -2.44375,46.40491 9.57959,67.41951 5.41376,9.46227 19.77056,24.28519 30.61341,31.60734 9.6622,6.52486 10.3738,7.27724 12.27366,12.9768 1.7812,5.3436 -1.19129,10.95045 -7.19608,13.57357 -2.58284,1.12829 -4.83284,2.00702 -5,1.95274 -0.16715,-0.0543 -0.86642,-0.26723 -1.55392,-0.47324 z m 127.80086,-30.37262 c -4.6458,-4.71672 -5.79792,-6.71764 -5.57801,-9.6875 0.25936,-3.50281 0.0165,-3.7226 -3.78535,-3.42569 -5.00049,0.3905 -5.51834,-2.43072 -0.99073,-5.39734 3.8224,-2.50452 11.97912,-17.24777 15.51589,-28.04492 5.48371,-16.74084 5.53738,-40.18823 0.12918,-56.44943 -8.97455,-26.98443 -32.86767,-49.38879 -61.91649,-58.05858 -9.31659,-2.78059 -29.44421,-2.71995 -40.73811,0.12272 -15.06698,3.79237 -33.56224,12.4172 -33.56224,15.65097 0,2.39753 -1.96071,1.13347 -10,-6.44696 -4.46875,-4.21369 -9.39063,-8.49263 -10.9375,-9.50875 -2.99581,-1.96791 -3.72496,-4.05997 -1.41502,-4.05997 0.76862,0 3.26742,-1.64182 5.55289,-3.6485 6.92351,-6.07891 19.1538,-12.13731 34.29963,-16.99064 74.79982,-23.96887 151.26239,32.48368 151.24829,111.66709 -0.004,24.41714 -11.444,58.10054 -24.96062,73.49513 -2.08322,2.37265 -3.78767,4.85683 -3.78767,5.52042 0,2.72114 -3.55591,0.86443 -9.07414,-4.73805 z m 12.82414,-115.93045 c -0.85586,-1.03125 -1.75084,-1.875 -1.98883,-1.875 -0.23798,0 -0.109,0.84375 0.28679,1.875 0.39574,1.03125 1.2907,1.875 1.98883,1.875 0.73163,0 0.61015,-0.79426 -0.28679,-1.875 z M 239.75796,483.36256 c -8.73386,-8.62712 -9.23282,-9.40184 -7.30002,-11.33465 1.9328,-1.9328 2.50121,-1.67555 8.31614,3.76363 3.43285,3.21103 6.57108,7.15121 6.97385,8.75597 0.40277,1.60477 1.95596,3.23774 3.45154,3.62885 2.29737,0.60077 2.46967,1.0118 1.11062,2.64936 -0.88474,1.06605 -1.96162,1.90646 -2.39307,1.86758 -0.43144,-0.0389 -5.00302,-4.23771 -10.15906,-9.33074 z"
         id="path3646"
         inkscape:connector-curvature="0" />
      <path
         style="fill:#0a0909"
         d="m 322.02127,673.10795 c -3.93021,-0.41404 -4.66873,-0.98305 -5,-3.85237 -0.32072,-2.77779 -1.14069,-3.4759 -4.68839,-3.99159 -3.65724,-0.53161 -4.46646,-1.27094 -5.41573,-4.94795 -1.02625,-3.97519 -0.78091,-4.60605 3.0497,-7.84218 5.19098,-4.38536 10.33113,-6.68121 17.41804,-7.77976 12.7316,-1.97355 29.00443,-8.97992 38.20806,-16.45074 2.8657,-2.32615 6.44076,-4.22937 7.94455,-4.22937 3.23812,0 9.71213,5.16443 12.76308,10.1813 1.19364,1.96279 2.98908,3.5687 3.98985,3.5687 3.28966,0 3.53019,2.63 0.53561,5.85644 -5.57625,6.008 -17.52556,14.44256 -27.36607,19.31667 -8.6802,4.2994 -32.0468,11.44225 -35.54873,10.86677 -0.70326,-0.11563 -3.35375,-0.42874 -5.88997,-0.69592 z m -59.13869,-12.16589 c -0.6875,-0.20601 -3.78125,-1.11508 -6.875,-2.02017 -16.78768,-4.91126 -38.47201,-26.95839 -50.97133,-51.8241 -14.17048,-28.19026 -15.89387,-61.46664 -4.72072,-91.15096 3.9192,-10.41235 9.68046,-21.23025 14.24565,-26.74897 l 3.46697,-4.19114 7.42722,7.39956 c 13.28356,13.2341 12.64712,11.8217 8.44373,18.7383 -7.63991,12.57137 -12.89362,30.40498 -12.88981,43.75421 0.002,8.60739 3.08736,24.86684 6.23552,32.8652 6.78123,17.22873 20.52131,33.94312 37.11411,45.1482 9.6622,6.52486 10.3738,7.27724 12.27366,12.9768 1.7812,5.3436 -1.19129,10.95045 -7.19608,13.57357 -2.58284,1.12829 -4.83284,2.00702 -5,1.95274 -0.16715,-0.0543 -0.86642,-0.26723 -1.55392,-0.47324 z m 134.375,-30.59505 c 0,-3.05821 -0.56329,-3.73263 -3.39304,-4.0625 -2.75416,-0.32105 -3.55933,-1.21484 -4.27621,-4.74692 -0.49319,-2.42995 -2.33317,-5.50759 -4.16693,-6.96976 l -3.28375,-2.61838 5.22359,-9.21812 c 10.25369,-18.09485 14.1245,-35.87614 12.26759,-56.35345 -3.24196,-35.75106 -29.00992,-65.96007 -65.5709,-76.8719 -18.54101,-5.53367 -50.93969,-0.20756 -69.32061,11.3958 -2.71153,1.71172 -5.2011,3.11221 -5.53238,3.11221 -0.33127,0 -4.97666,-4.16679 -10.32308,-9.25953 l -9.72075,-9.25952 2.48299,-2.74367 c 4.77842,-5.28011 19.53436,-12.83893 34.69669,-17.77361 13.37677,-4.35356 17.17026,-5.05411 30.29179,-5.59402 67.19005,-2.76468 121.88526,49.70229 121.87329,116.9083 -0.003,19.12315 -6.07637,41.71685 -16.12854,60.0042 -8.67575,15.7833 -15.11975,21.77175 -15.11975,14.05087 z m 6.25,-115.70802 c -0.85586,-1.03125 -1.75084,-1.875 -1.98883,-1.875 -0.23798,0 -0.109,0.84375 0.28679,1.875 0.39574,1.03125 1.2907,1.875 1.98883,1.875 0.73163,0 0.61015,-0.79426 -0.28679,-1.875 z"
         id="path3644"
         inkscape:connector-curvature="0" />
    </g>
  </g>
</svg>
